# xmcd
#
# Track frame offsets: 
#        150
#        12125
#        29282
#        43820
#        59325
#        71257
#        86752
#        99610
#        114725
#        129952
#        148465
#        161130
#        174495
#        191307
#
# Disc length: 2787 seconds
#
# Revision: 1
# Processed by: cddbd v1.5.1PL0 Copyright (c) Steve Scherf et al.
# Submitted via: ExactAudioCopy v0.95a5
#
DISCID=c10ae10e
DTITLE=Agnaldo Timoteo - Os Verdes Campos da Minha Terra
DYEAR=2003
DGENRE=
TTITLE0=Os Verdes Campos...
TTITLE1=Foi Deus
TTITLE2=Ultimo Telefonema
TTITLE3=Nao Mereco Voce
TTITLE4=A Galeria do Amor
TTITLE5=Etiquetas
TTITLE6=Aline
TTITLE7=Tristeza Danada
TTITLE8=Cavaleiro Triste
TTITLE9=Quem e voce
TTITLE10=Siga em paz
TTITLE11=Quem Sabe
TTITLE12=Quem e
TTITLE13=A Casa de Irene
EXTD=
EXTT0=
EXTT1=
EXTT2=
EXTT3=
EXTT4=
EXTT5=
EXTT6=
EXTT7=
EXTT8=
EXTT9=
EXTT10=
EXTT11=
EXTT12=
EXTT13=
PLAYORDER=
